{"title":"(Request) Disturbing Behavior (1998) (PSP, iPod, Zune)","uid":5740024,"size":397210595,"categoryP":"video","categoryS":"handheld","magnet":"?xt=urn:btih:45b37033ae67c000ffcda459c99e2c92a681a045&amp;dn=%28Request%29+Disturbing+Behavior+%281998%29+%28PSP%2C+iPod%2C+Zune%29&amp;tr=udp%3A%2F%2Ftracker.openbittorrent.com%3A80&amp;tr=udp%3A%2F%2Fopen.demonii.com%3A1337&amp;tr=udp%3A%2F%2Ftracker.coppersurfer.tk%3A6969&amp;tr=udp%3A%2F%2Fexodus.desync.com%3A6969","seeders":0,"leechers":1,"uploader":"The_Day_Walker","files":-1,"time":1280969636,"description":"Source: A friend. You know who you are. =) Thanks man. &lt;(^_^)&gt;\n\nEncoded for PSP, iPod, and Zune \n\nEnjoy and please help seed.\n\nIf you need/want to get in touch with me (request, reseed, etc.). Leave a comment on my latest torrent or Send an email to &lt;a class=&quot;__cf_email__&quot; href=&quot;/cdn-cgi/l/email-protection&quot; data-cfemail=&quot;600d0f1609531304091253031420080f14020f184e1215&quot;&gt;[email&amp;#160;protected]&lt;/a&gt;&lt;script cf-hash='f9e31' type=&quot;text/javascript&quot;&gt;\n/* &lt;![CDATA[ */!function(){try{var t=&quot;currentScript&quot;in document?document.currentScript:function(){for(var t=document.getElementsByTagName(&quot;script&quot;),e=t.length;e--;)if(t[e].getAttribute(&quot;cf-hash&quot;))return t[e]}();if(t&amp;&amp;t.previousSibling){var e,r,n,i,c=t.previousSibling,a=c.getAttribute(&quot;data-cfemail&quot;);if(a){for(e=&quot;&quot;,r=parseInt(a.substr(0,2),16),n=2;a.length-n;n+=2)i=parseInt(a.substr(n,2),16)^r,e+=String.fromCharCode(i);e=document.createTextNode(e),c.parentNode.replaceChild(e,c)}}}catch(u){}}();/* ]]&gt; */&lt;/script&gt;\n\n\nMovie info - Hot stars James Marsden, Katie Holmes and Nick Stahl set the screen ablaze in this breathlessly fast-paced jolt-fest from veteran &quot;X-Files&quot; director David Nutter. Written by Scott Rosenberg and featuring a hip soundtrack from the hottest bands around, this &quot;clutch-your-armrest thriller&quot; (Teen People) will pull you into the undercurrent of a deranged high school clique--and drag you away screaming!\n\nAchieve, be excellent...and be afraid. For when the esteemed Blue Ribbon club of Cradle Bay High take their slogans too far, things in the small coastal town begin to go wrong. Dead wrong. And when a &quot;dark sinister force&quot; begins turning the schools curricularly challenged into the soulless, academic elite, three &quot;outsiders&quot; join in a desperate race to avoid becoming insiders...and losing their individuality forever!\n\n\nVideo Specs:\nFormat                           : MPEG-4\nCodec ID                         : M4V \nFile size                        : 379 MiB\nDuration                         : 1h 23mn\nOverall bit rate                 : 633 Kbps\nMovie name                       : Disturbing Behavior (1998)\nEncoded date                     : 2010\nWriting application              : Lavf52.33.0\n\nVideo\nID                               : 1\nFormat                           : AVC\nFormat/Info                      : Advanced Video Codec\nFormat profile                   : &lt;a class=&quot;__cf_email__&quot; href=&quot;/cdn-cgi/l/email-protection&quot; data-cfemail=&quot;d496b5a7b1b8bdbab19498e5fae7&quot;&gt;[email&amp;#160;protected]&lt;/a&gt;&lt;script cf-hash='f9e31' type=&quot;text/javascript&quot;&gt;\n/* &lt;![CDATA[ */!function(){try{var t=&quot;currentScript&quot;in document?document.currentScript:function(){for(var t=document.getElementsByTagName(&quot;script&quot;),e=t.length;e--;)if(t[e].getAttribute(&quot;cf-hash&quot;))return t[e]}();if(t&amp;&amp;t.previousSibling){var e,r,n,i,c=t.previousSibling,a=c.getAttribute(&quot;data-cfemail&quot;);if(a){for(e=&quot;&quot;,r=parseInt(a.substr(0,2),16),n=2;a.length-n;n+=2)i=parseInt(a.substr(n,2),16)^r,e+=String.fromCharCode(i);e=document.createTextNode(e),c.parentNode.replaceChild(e,c)}}}catch(u){}}();/* ]]&gt; */&lt;/script&gt;\nFormat settings, CABAC           : No\nFormat settings, ReFrames        : 1 frame\nCodec ID                         : avc1\nCodec ID/Info                    : Advanced Video Coding\nDuration                         : 1h 23mn\nBit rate mode                    : Variable\nBit rate                         : 500 Kbps\nWidth                            : 320 pixels\nHeight                           : 240 pixels\nDisplay aspect ratio             : 4:3\nFrame rate mode                  : Constant\nFrame rate                       : 29.970 fps\nColor space                      : YUV\nChroma subsampling               : 4:2:0\nBit depth                        : 8 bits\nScan type                        : Progressive\nBits/(Pixel*Frame)               : 0.217\nStream size                      : 299 MiB (79%)\n\nAudio\nID                               : 2\nFormat                           : AAC\nFormat/Info                      : Advanced Audio Codec\nFormat version                   : Version 4\nFormat profile                   : LC\nFormat settings, SBR             : No\nCodec ID                         : 40\nDuration                         : 1h 23mn\nBit rate mode                    : Variable\nBit rate                         : 128 Kbps\nChannel(s)                       : 2 channels\nChannel positions                : Front: L R\nSampling rate                    : 48.0 KHz\nStream size                      : 76.6 MiB (20%)\n\n","torrent":{"xt":"urn:btih:45b37033ae67c000ffcda459c99e2c92a681a045","amp;dn":"%28Request%29+Disturbing+Behavior+%281998%29+%28PSP%2C+iPod%2C+Zune%29","amp;tr":["udp%3A%2F%2Ftracker.openbittorrent.com%3A80","udp%3A%2F%2Fopen.demonii.com%3A1337","udp%3A%2F%2Ftracker.coppersurfer.tk%3A6969","udp%3A%2F%2Fexodus.desync.com%3A6969"],"infoHash":"45b37033ae67c000ffcda459c99e2c92a681a045","infoHashBuffer":{"type":"Buffer","data":[69,179,112,51,174,103,192,0,255,205,164,89,201,158,44,146,166,129,160,69]},"announce":[],"urlList":[]}}